<svg width="22" height="20" viewBox="0 0 22 20" fill="none" xmlns="http://www.w3.org/2000/svg">
<path d="M3.1749 19.475C2.4249 19.475 1.7959 19.2207 1.2879 18.712C0.779236 18.204 0.524902 17.575 0.524902 16.825V3.17502C0.524902 2.42502 0.779236 1.79569 1.2879 1.28702C1.7959 0.779024 2.4249 0.525024 3.1749 0.525024H18.8249C19.5749 0.525024 20.2042 0.779024 20.7129 1.28702C21.2209 1.79569 21.4749 2.42502 21.4749 3.17502V16.825C21.4749 17.575 21.2209 18.204 20.7129 18.712C20.2042 19.2207 19.5749 19.475 18.8249 19.475H3.1749ZM4.5249 15H9.3999V13H4.5249V15ZM13.5499 13L18.3749 8.17502L16.9499 6.75002L13.5499 10.175L12.1249 8.75002L10.7249 10.175L13.5499 13ZM4.5249 11H9.3999V9.00002H4.5249V11ZM4.5249 7.00002H9.3999V5.00002H4.5249V7.00002Z" fill="#00675B"/>
</svg>
