<svg width="18" height="19" viewBox="0 0 18 19" fill="none" xmlns="http://www.w3.org/2000/svg">
<path d="M8.9999 9.75001C7.76657 9.75001 6.71257 9.31668 5.8379 8.45001C4.96257 7.58335 4.5249 6.52501 4.5249 5.27501C4.5249 4.04168 4.96257 2.99168 5.8379 2.12501C6.71257 1.25835 7.76657 0.825012 8.9999 0.825012C10.2332 0.825012 11.2876 1.25835 12.1629 2.12501C13.0376 2.99168 13.4749 4.04168 13.4749 5.27501C13.4749 6.52501 13.0376 7.58335 12.1629 8.45001C11.2876 9.31668 10.2332 9.75001 8.9999 9.75001ZM0.524902 18.725V15.4C0.524902 14.75 0.695569 14.15 1.0369 13.6C1.3789 13.05 1.83324 12.6333 2.3999 12.35C3.4499 11.8333 4.52923 11.4373 5.6379 11.162C6.7459 10.8873 7.86657 10.75 8.9999 10.75C10.1499 10.75 11.2792 10.8833 12.3879 11.15C13.4959 11.4167 14.5666 11.8167 15.5999 12.35C16.1666 12.6333 16.6209 13.0457 16.9629 13.587C17.3042 14.129 17.4749 14.7333 17.4749 15.4V18.725H0.524902Z" fill="#7E7E7E"/>
</svg>
